# xmcd
#
# Track frame offsets:
#	150
#	22631
#	41404
#	58936
#	77295
#	94071
#	113451
#	132962
#	148980
#	168354
#	190373
#
# Disc length: 3362 seconds
#
# Revision: 1
# Processed by: cddbd v1.5PL3 Copyright (c) Steve Scherf et al.
# Submitted via: CDex 1.50Beta5
#
DISCID=860d200b
DTITLE=Do As Infinity - TRUE SONG
DYEAR=2002
DGENRE=Pop
TTITLE0=空想旅団
TTITLE1=Under The Sun
TTITLE2=Good For You
TTITLE3=I Can't Be Myself
TTITLE4=Perfect Lady
TTITLE5=真実の詩
TTITLE6=Grateful Journey
TTITLE7=One Or Eight
TTITLE8=Sense Of Life
TTITLE9=轍-Wadachi-
TTITLE10=あいのうた
EXTD=
EXTT0=
EXTT1=
EXTT2=
EXTT3=
EXTT4=
EXTT5=
EXTT6=
EXTT7=
EXTT8=
EXTT9=
EXTT10=
PLAYORDER=
